HIERARCHY
ROOT Hips
{
   OFFSET 0.00000 0.00000 0.00000
   CHANNELS 6 Xposition Yposition Zposition Zrotation Xrotation Yrotation
   JOINT Spine
   {
      OFFSET 0.000000 11.890501 0.000000
      CHANNELS 3 Zrotation Xrotation Yrotation
      JOINT Spine1
      {
         OFFSET -0.000000 25.657401 0.127660
         CHANNELS 3 Zrotation Xrotation Yrotation
         JOINT HEad
         {
            OFFSET 0.000000 8.734161 0.011340
            CHANNELS 3 Zrotation Xrotation Yrotation
            End Site
            {
               OFFSET -0.290000 12.774200 2.513950
            }
         }
         JOINT LeftShoulder1
         {
            OFFSET 8.990000 -0.362250 -0.220000
            CHANNELS 3 Zrotation Xrotation Yrotation
            JOINT LeftArm
            {
               OFFSET 10.282700 -0.003380 0.322120
               CHANNELS 3 Zrotation Xrotation Yrotation
               JOINT LeftForeArm
               {
                  OFFSET 32.766900 0.099140 -1.424340
                  CHANNELS 3 Zrotation Xrotation Yrotation
                  JOINT LeftHand
                  {
                     OFFSET 27.564301 0.085360 1.022160
                     CHANNELS 3 Zrotation Xrotation Yrotation
                     End Site
                     {
                        OFFSET 16.744301 -0.600000 1.502910
                     }
                  }
               }
            }
         }
         JOINT RightShoulder
         {
            OFFSET -8.990000 -0.362250 -0.220000
            CHANNELS 3 Zrotation Xrotation Yrotation
            JOINT RightArm
            {
               OFFSET -10.282700 -0.003380 0.322120
               CHANNELS 3 Zrotation Xrotation Yrotation
               JOINT RightForeArm
               {
                  OFFSET -32.897098 0.099140 -1.424340
                  CHANNELS 3 Zrotation Xrotation Yrotation
                  JOINT RightHand
                  {
                     OFFSET -27.492101 0.085360 1.022160
                     CHANNELS 3 Zrotation Xrotation Yrotation
                     End Site
                     {
                        OFFSET -16.631201 -0.600000 1.502910
                     }
                  }
               }
            }
         }
      }
   }
   JOINT LeftUpLeg
   {
      OFFSET 8.945800 -8.667070 0.101650
      CHANNELS 3 Zrotation Xrotation Yrotation
      JOINT LeftLeg
      {
         OFFSET 0.000000 -44.422697 1.372700
         CHANNELS 3 Zrotation Xrotation Yrotation
         JOINT LeftFoot
         {
            OFFSET -0.253550 -42.092399 -1.460590
            CHANNELS 3 Zrotation Xrotation Yrotation
            JOINT LeftToes
            {
               OFFSET -0.040000 -4.415090 8.499099
               CHANNELS 3 Zrotation Xrotation Yrotation
               End Site
               {
                  OFFSET 0.080000 -0.047450 9.779790
               }
            }
         }
      }
   }
   JOINT RightUpLeg
   {
      OFFSET -8.945800 -8.667070 0.101650
      CHANNELS 3 Zrotation Xrotation Yrotation
      JOINT RightLeg
      {
         OFFSET 0.000000 -44.422697 1.372700
         CHANNELS 3 Zrotation Xrotation Yrotation
         JOINT RightFoot
         {
            OFFSET 0.253550 -42.092399 -1.460590
            CHANNELS 3 Zrotation Xrotation Yrotation
            JOINT RightToes
            {
               OFFSET 0.040000 -4.415090 8.499099
               CHANNELS 3 Zrotation Xrotation Yrotation
               End Site
               {
                  OFFSET -0.080000 -0.137450 9.779790
               }
            }
         }
      }
   }
}
MOTION
Frames: 15
Frame Time: 0.016670
18.209578 86.836327 -33.055126 17.583511 4.803636 105.824554 -12.062123 33.374060 3.347022 0.653304 -1.406486 2.790217 -13.068406 27.022257 8.071900 8.205575 24.455007 -0.976964 -143.059596 -56.639241 -108.138205 -45.561200 54.732546 -79.805337 11.787766 16.470159 -13.799753 8.370931 38.981474 7.158059 114.665448 -0.825283 103.424323 2.372088 60.021305 93.020080 15.731498 12.237815 8.190067 18.230586 -3.353415 1.514525 -13.344391 27.581827 42.941567 75.647118 -12.163033 8.593697 -79.158423 2.172786 -41.789232 -35.754476 16.238440 14.996457 45.411056 -12.002583 -47.816942 -37.004698 -8.570546 -1.441417 7.355298 -11.936274 26.448890
18.252187 86.589020 -33.637180 18.547703 5.474062 106.087857 -12.736874 34.281700 3.453025 0.503819 -1.376352 2.788680 -12.480426 28.863232 5.952153 8.199014 25.156905 -0.753405 -141.057654 -56.017021 -108.125945 -43.285552 53.474907 -81.399312 10.955951 16.876190 -13.245026 9.263158 40.121918 6.818516 115.503102 -0.460684 104.457860 2.196126 60.753324 93.974018 14.975700 12.263315 7.763516 17.474617 -1.697011 -1.386417 -14.683588 26.008500 46.212022 77.329769 -12.499695 8.726167 -80.592558 0.786714 -42.554158 -37.681372 19.542213 17.053401 46.526033 -16.429953 -48.093852 -34.870807 -8.817389 -1.078243 4.280738 -12.405772 27.885929
18.304218 86.366051 -34.263010 19.170750 6.031466 106.405154 -13.292632 35.055509 3.408575 0.372672 -1.334447 2.745793 -11.935925 30.342781 4.258959 8.153634 25.776413 -0.426960 -139.205170 -55.510105 -107.674777 -41.055577 52.170938 -82.975214 9.578289 16.557610 -12.920499 9.996748 41.195839 6.575514 116.422582 -0.205080 105.378740 1.960984 61.249762 94.854778 14.640852 12.029358 7.312543 16.911519 -0.334664 -3.792979 -15.666579 23.988808 49.135455 78.794066 -12.740748 8.396215 -81.965917 -0.861709 -43.328114 -39.104882 22.060097 18.704885 47.397138 -19.979492 -48.482961 -32.275567 -8.974671 -0.946999 0.995848 -12.858430 28.910893
18.333630 86.223849 -34.873368 19.847973 6.607446 106.509546 -13.871340 35.785851 3.316055 0.194637 -1.382757 2.746061 -11.461845 31.535431 2.982441 8.186012 26.286893 -0.001822 -137.257555 -55.098699 -106.954567 -38.915792 50.794652 -84.454907 8.728908 16.778080 -12.405171 10.451242 42.130581 6.511891 117.204038 0.077826 106.305214 1.655898 61.733292 95.631029 14.251284 11.918298 7.063237 16.327408 1.001090 -5.711583 -16.959481 22.744614 51.821745 80.440873 -12.990256 8.615363 -83.226319 -2.656386 -44.118770 -40.170207 24.013769 20.233532 47.732381 -22.387726 -48.911572 -29.246443 -8.811695 -0.723883 -2.540567 -13.055062 29.741079
18.323440 86.149567 -35.479121 20.387584 7.007597 106.516588 -14.468861 36.421823 3.126484 0.042040 -1.388106 2.714980 -11.080536 32.454825 2.108014 8.311346 26.741915 0.636650 -135.148284 -54.877643 -106.097816 -36.903628 49.383733 -85.802885 7.499070 16.627860 -12.033718 10.758607 42.996365 6.513136 117.968159 0.324508 107.163605 1.359234 62.036313 96.361798 13.869838 11.642221 6.695039 16.067535 1.900950 -7.155067 -18.264348 21.823189 54.271174 82.251781 -13.066913 8.356714 -84.144509 -4.233204 -44.855317 -40.926668 25.394292 21.710311 47.360918 -23.940609 -49.032815 -25.631265 -9.149486 -0.413291 -6.093886 -13.280996 30.316867
18.289548 86.186494 -36.070306 20.783432 7.406016 106.466175 -15.019222 37.055388 2.950540 -0.067331 -1.464607 2.754187 -10.815605 33.030617 1.615515 8.320682 27.089749 1.184846 -133.076455 -54.596830 -104.879843 -35.116827 47.967681 -87.021268 6.806762 16.762285 -11.554079 11.016380 43.873321 6.754583 118.666300 0.572466 107.936489 1.013727 62.352332 97.063934 13.663905 11.522313 6.555367 15.783047 2.655118 -8.180280 -19.764481 21.310965 56.411338 84.046468 -13.156630 8.410652 -85.034954 -5.871143 -45.705147 -41.382422 25.966429 23.102543 46.556274 -22.949666 -47.679314 -20.723055 -9.526982 0.063431 -10.346435 -13.661362 29.013786
18.217990 86.297587 -36.659488 21.134607 7.759657 106.386951 -15.365101 37.519745 2.831556 -0.235601 -1.420374 2.899093 -10.661644 33.301964 1.472873 8.192271 27.373498 1.820517 -131.209532 -54.314313 -103.344833 -33.588353 46.502380 -88.099113 6.154874 16.638646 -11.172228 11.170410 44.839536 7.065002 119.277574 0.827101 108.577017 0.673912 62.698787 97.853832 13.675676 11.378318 6.483451 15.522185 3.352065 -8.872528 -20.904591 20.630298 58.134117 85.571171 -13.337054 8.493708 -86.002156 -7.624162 -46.719713 -41.580488 25.988426 24.146988 45.416578 -21.945615 -46.842749 -15.978212 -9.796986 0.358475 -14.622834 -13.454098 27.970412
18.150837 86.472653 -37.294280 21.397024 7.785853 105.947176 -15.848158 38.179914 2.719904 -0.130916 -1.684740 3.079770 -10.685584 32.185197 2.821477 8.368629 27.565986 2.462637 -129.139302 -54.034774 -102.172889 -32.295139 45.212461 -88.949881 5.858690 16.703149 -10.810858 11.234283 45.551027 7.639105 119.920473 1.161066 109.310354 0.157306 62.893406 98.509523 14.175161 11.416559 6.694973 15.325227 3.902481 -8.111875 -21.462929 20.791895 58.630638 87.170187 -13.417370 8.343935 -86.694915 -9.082947 -47.825596 -41.675386 25.648899 24.427885 45.937192 -19.546477 -45.674459 -30.374189 -9.598844 -0.269906 -0.559184 -14.807562 25.563680
18.070998 86.689299 -37.975068 21.741346 7.787259 105.800020 -16.309018 38.971704 2.580115 0.000677 -2.008680 3.260907 -10.724685 31.002027 4.237235 8.429218 27.746737 3.090620 -127.349314 -53.795550 -101.097236 -31.249604 44.057773 -89.632511 5.566380 16.664673 -10.552691 11.208381 46.082368 8.344668 120.592181 1.536429 110.118215 -0.426949 62.978968 99.217227 15.289235 11.531277 7.150514 15.039919 4.405172 -6.070008 -21.371030 21.558336 57.923488 88.542946 -13.533490 8.363159 -87.443176 -10.477607 -49.046759 -41.550267 24.863089 24.647834 46.123301 -16.936146 -45.330617 -44.792521 -9.586667 -0.807442 13.387943 -15.006573 23.555820
17.974673 86.912182 -38.684258 22.097998 7.798618 105.895075 -16.871074 39.904906 2.269345 0.105413 -2.109098 3.297722 -10.804621 29.787223 5.691440 8.478462 27.972784 3.720836 -125.818450 -53.628603 -100.227070 -30.330534 43.107902 -90.091083 5.500656 16.772091 -10.239530 10.807333 46.566990 8.945880 120.960178 1.759087 111.053733 -1.136297 63.362278 100.176226 17.297973 11.901970 7.627795 14.709688 4.802523 -3.976590 -20.884895 22.196943 57.144644 89.582610 -13.661678 8.658588 -88.363544 -11.898919 -50.326811 -40.772271 23.759817 24.895112 47.828294 -12.972286 -45.160231 -35.816819 -10.100983 -1.111612 4.037695 -17.287451 21.520138
17.868527 87.172736 -39.407141 22.352178 7.565739 105.859019 -17.242382 40.749452 1.947561 0.430987 -2.322870 3.341397 -10.855150 28.454698 7.132673 8.704581 28.060051 4.341969 -124.392962 -53.327218 -99.726492 -29.602494 42.329831 -90.520299 5.597351 16.773927 -10.145326 10.400497 47.054461 9.765384 121.547096 2.263263 111.889891 -1.885715 63.449869 100.915512 18.420621 12.035240 7.744871 14.572405 5.025622 -1.881337 -20.333652 23.083299 56.338672 90.760927 -13.759183 8.812811 -89.010615 -12.960531 -51.556419 -40.228165 22.384821 24.855822 49.812532 -8.240050 -44.575758 -43.644205 -9.634190 -2.013674 11.282010 -20.402525 19.038027
17.758355 87.477053 -40.097799 22.608297 7.520177 105.986941 -17.122388 41.363216 1.599139 0.499229 -2.365411 3.389968 -10.842598 27.040470 8.526386 8.758580 28.259320 4.935538 -123.319475 -52.973165 -99.116331 -29.099416 41.891306 -91.096617 5.937772 16.795222 -10.223406 9.856228 47.528715 10.565587 122.306749 2.803921 112.666026 -2.572308 63.294393 101.513864 18.835399 12.007266 7.784303 14.329838 5.117550 0.087244 -19.729584 24.256351 55.453169 92.098728 -13.878023 8.670371 -89.320651 -13.622262 -52.788743 -39.605999 20.613224 24.996488 52.295343 -2.661509 -44.431938 -37.959056 -9.868192 -2.238180 4.734966 -23.601968 16.335483
17.635649 87.771014 -40.734486 22.888725 7.417969 106.190795 -16.705973 41.668522 1.116633 0.458137 -2.354768 3.325598 -10.814474 25.560967 9.861034 8.679064 28.414162 5.492117 -122.574001 -52.545581 -98.451508 -28.587082 41.498413 -91.596136 6.491925 16.709336 -10.319160 9.175411 47.988045 11.267681 123.014521 3.298571 113.470766 -2.991654 63.173854 102.397697 19.041647 11.892219 8.003821 14.145656 5.313357 2.151774 -19.139269 25.107265 54.541157 93.023536 -13.952934 8.600934 -89.820184 -14.261771 -53.732815 -39.081963 18.404860 24.945070 54.321659 3.673385 -44.350071 -37.750988 -9.096118 -2.718494 4.493716 -26.856883 13.450009
17.494032 88.016928 -41.316203 22.923915 7.065660 106.509874 -16.487740 42.183156 0.759455 0.553317 -2.501236 3.390705 -10.801643 24.174322 11.122139 8.719289 28.288574 6.086586 -121.952918 -51.928395 -97.981488 -28.016799 40.920749 -91.979876 7.471904 16.534457 -10.514911 8.382020 48.508881 11.998507 123.537317 3.672561 114.213959 -3.640396 63.282693 102.993249 19.292619 11.816062 8.261599 14.124801 5.366761 4.195342 -18.490570 25.738243 53.539066 93.743219 -14.032024 8.781304 -90.409937 -14.823546 -54.452157 -38.206101 16.139184 24.675175 55.103043 7.914194 -44.505847 -36.332081 -8.725494 -2.939511 3.323254 -28.488137 12.066486
17.291138 88.218430 -41.830782 22.989286 6.584617 106.592014 -15.996079 42.733635 0.450129 0.604704 -2.518236 3.507860 -10.719430 22.859726 12.270442 8.613750 28.214045 6.614388 -121.322683 -51.339602 -97.647922 -27.606095 40.589055 -92.610842 8.335483 16.339903 -10.783055 7.710060 49.002636 12.819641 124.145819 4.183458 114.983953 -4.090071 63.314249 103.763564 19.168630 11.656851 8.457196 14.365896 5.185906 5.966318 -17.723863 26.162790 52.255773 94.299067 -14.321530 8.912844 -90.978612 -15.276162 -55.134076 -37.577081 14.220866 24.274414 55.331195 10.913046 -44.574139 -35.594486 -8.782911 -3.060106 3.342288 -29.862475 11.225966
